<?xml version="1.0" standalone="no"?>
<!DOCTYPE svg PUBLIC "-//W3C//DTD SVG 1.1//EN"
 "http://www.w3.org/Graphics/SVG/1.1/DTD/svg11.dtd">

<svg version="1.1" xmlns="http://www.w3.org/2000/svg"
  xmlns:xlink="http://www.w3.org/1999/xlink">
<!-- automatically generated by aafigure -->
<text x="14.0" y="11.9" font-family="monospace" font-size="14.0" fill="#000000" >
  rst
</text>
<text x="14.0" y="39.9" font-family="monospace" font-size="14.0" fill="#000000" >
  clk
</text>
<text x="0.0" y="67.9" font-family="monospace" font-size="14.0" fill="#000000" >
  &lt;bus_name&gt;
</text>
<text x="0.0" y="109.9" font-family="monospace" font-size="14.0" fill="#000000" >
  &lt;bus_name&gt;_stb
</text>
<text x="0.0" y="137.9" font-family="monospace" font-size="14.0" fill="#000000" >
  &lt;bus_name&gt;_ack
</text>
<text x="406.0" y="165.9" font-family="monospace" font-size="14.0" fill="#000000" >
  RX adds wait states
</text>
<text x="476.0" y="207.9" font-family="monospace" font-size="14.0" fill="#000000" >
  Data transfers
</text>
<text x="14.0" y="249.9" font-family="monospace" font-size="14.0" fill="#000000" >
  rst
</text>
<text x="14.0" y="277.9" font-family="monospace" font-size="14.0" fill="#000000" >
  clk
</text>
<text x="0.0" y="305.9" font-family="monospace" font-size="14.0" fill="#000000" >
  &lt;bus_name&gt;
</text>
<text x="0.0" y="347.9" font-family="monospace" font-size="14.0" fill="#000000" >
  &lt;bus_name&gt;_stb
</text>
<text x="0.0" y="375.9" font-family="monospace" font-size="14.0" fill="#000000" >
  &lt;bus_name&gt;_ack
</text>
<text x="406.0" y="417.9" font-family="monospace" font-size="14.0" fill="#000000" >
  TX adds wait states
</text>
<text x="476.0" y="459.9" font-family="monospace" font-size="14.0" fill="#000000" >
  Data transfers
</text>
<text x="14.0" y="515.9" font-family="monospace" font-size="14.0" fill="#000000" >
  rst
</text>
<text x="14.0" y="543.9" font-family="monospace" font-size="14.0" fill="#000000" >
  clk
</text>
<text x="0.0" y="585.9" font-family="monospace" font-size="14.0" fill="#000000" >
  &lt;bus_name&gt;
</text>
<text x="0.0" y="627.9" font-family="monospace" font-size="14.0" fill="#000000" >
  &lt;bus_name&gt;_stb
</text>
<text x="0.0" y="655.9" font-family="monospace" font-size="14.0" fill="#000000" >
  &lt;bus_name&gt;_ack
</text>
<text x="420.0" y="683.9" font-family="monospace" font-size="14.0" fill="#000000" >
  TX adds wait states
</text>
<text x="532.0" y="711.9" font-family="monospace" font-size="14.0" fill="#000000" >
  Data transfers
</text>
<text x="588.0" y="739.9" font-family="monospace" font-size="14.0" fill="#000000" >
  stb and ack needn't return to 0 between data words
</text>
<line x1="245.0" y1="14.0" x2="805.0" y2="14.0" stroke="#000000" stroke-width="2.0" />
<line x1="273.0" y1="28.0" x2="301.0" y2="28.0" stroke="#000000" stroke-width="2.0" />
<line x1="329.0" y1="28.0" x2="357.0" y2="28.0" stroke="#000000" stroke-width="2.0" />
<line x1="385.0" y1="28.0" x2="413.0" y2="28.0" stroke="#000000" stroke-width="2.0" />
<line x1="441.0" y1="28.0" x2="469.0" y2="28.0" stroke="#000000" stroke-width="2.0" />
<line x1="497.0" y1="28.0" x2="525.0" y2="28.0" stroke="#000000" stroke-width="2.0" />
<line x1="553.0" y1="28.0" x2="581.0" y2="28.0" stroke="#000000" stroke-width="2.0" />
<line x1="609.0" y1="28.0" x2="637.0" y2="28.0" stroke="#000000" stroke-width="2.0" />
<line x1="665.0" y1="28.0" x2="693.0" y2="28.0" stroke="#000000" stroke-width="2.0" />
<line x1="721.0" y1="28.0" x2="749.0" y2="28.0" stroke="#000000" stroke-width="2.0" />
<line x1="777.0" y1="28.0" x2="805.0" y2="28.0" stroke="#000000" stroke-width="2.0" />
<line x1="245.0" y1="42.0" x2="273.0" y2="42.0" stroke="#000000" stroke-width="2.0" />
<line x1="273.0" y1="28.0" x2="273.0" y2="42.0" stroke="#000000" stroke-width="2.0" />
<line x1="301.0" y1="28.0" x2="301.0" y2="42.0" stroke="#000000" stroke-width="2.0" />
<line x1="301.0" y1="42.0" x2="329.0" y2="42.0" stroke="#000000" stroke-width="2.0" />
<line x1="329.0" y1="28.0" x2="329.0" y2="42.0" stroke="#000000" stroke-width="2.0" />
<line x1="357.0" y1="28.0" x2="357.0" y2="42.0" stroke="#000000" stroke-width="2.0" />
<line x1="357.0" y1="42.0" x2="385.0" y2="42.0" stroke="#000000" stroke-width="2.0" />
<line x1="385.0" y1="28.0" x2="385.0" y2="42.0" stroke="#000000" stroke-width="2.0" />
<line x1="413.0" y1="28.0" x2="413.0" y2="42.0" stroke="#000000" stroke-width="2.0" />
<line x1="413.0" y1="42.0" x2="441.0" y2="42.0" stroke="#000000" stroke-width="2.0" />
<line x1="441.0" y1="28.0" x2="441.0" y2="42.0" stroke="#000000" stroke-width="2.0" />
<line x1="469.0" y1="28.0" x2="469.0" y2="42.0" stroke="#000000" stroke-width="2.0" />
<line x1="469.0" y1="42.0" x2="497.0" y2="42.0" stroke="#000000" stroke-width="2.0" />
<line x1="497.0" y1="28.0" x2="497.0" y2="42.0" stroke="#000000" stroke-width="2.0" />
<line x1="525.0" y1="28.0" x2="525.0" y2="42.0" stroke="#000000" stroke-width="2.0" />
<line x1="525.0" y1="42.0" x2="553.0" y2="42.0" stroke="#000000" stroke-width="2.0" />
<line x1="553.0" y1="28.0" x2="553.0" y2="42.0" stroke="#000000" stroke-width="2.0" />
<line x1="581.0" y1="28.0" x2="581.0" y2="42.0" stroke="#000000" stroke-width="2.0" />
<line x1="581.0" y1="42.0" x2="609.0" y2="42.0" stroke="#000000" stroke-width="2.0" />
<line x1="609.0" y1="28.0" x2="609.0" y2="42.0" stroke="#000000" stroke-width="2.0" />
<line x1="637.0" y1="28.0" x2="637.0" y2="42.0" stroke="#000000" stroke-width="2.0" />
<line x1="637.0" y1="42.0" x2="665.0" y2="42.0" stroke="#000000" stroke-width="2.0" />
<line x1="665.0" y1="28.0" x2="665.0" y2="42.0" stroke="#000000" stroke-width="2.0" />
<line x1="693.0" y1="28.0" x2="693.0" y2="42.0" stroke="#000000" stroke-width="2.0" />
<line x1="693.0" y1="42.0" x2="721.0" y2="42.0" stroke="#000000" stroke-width="2.0" />
<line x1="721.0" y1="28.0" x2="721.0" y2="42.0" stroke="#000000" stroke-width="2.0" />
<line x1="749.0" y1="28.0" x2="749.0" y2="42.0" stroke="#000000" stroke-width="2.0" />
<line x1="749.0" y1="42.0" x2="777.0" y2="42.0" stroke="#000000" stroke-width="2.0" />
<line x1="777.0" y1="28.0" x2="777.0" y2="42.0" stroke="#000000" stroke-width="2.0" />
<line x1="245.0" y1="56.0" x2="805.0" y2="56.0" stroke="#000000" stroke-width="2.0" />
<line x1="329.0" y1="56.0" x2="329.0" y2="70.0" stroke="#000000" stroke-width="2.0" />
<line x1="441.0" y1="56.0" x2="441.0" y2="70.0" stroke="#000000" stroke-width="2.0" />
<line x1="245.0" y1="70.0" x2="805.0" y2="70.0" stroke="#000000" stroke-width="2.0" />
<line x1="329.0" y1="98.0" x2="441.0" y2="98.0" stroke="#000000" stroke-width="2.0" />
<line x1="245.0" y1="112.0" x2="329.0" y2="112.0" stroke="#000000" stroke-width="2.0" />
<line x1="329.0" y1="98.0" x2="329.0" y2="112.0" stroke="#000000" stroke-width="2.0" />
<line x1="441.0" y1="98.0" x2="441.0" y2="112.0" stroke="#000000" stroke-width="2.0" />
<line x1="441.0" y1="112.0" x2="805.0" y2="112.0" stroke="#000000" stroke-width="2.0" />
<line x1="385.0" y1="126.0" x2="441.0" y2="126.0" stroke="#000000" stroke-width="2.0" />
<line x1="245.0" y1="140.0" x2="385.0" y2="140.0" stroke="#000000" stroke-width="2.0" />
<line x1="385.0" y1="126.0" x2="385.0" y2="140.0" stroke="#000000" stroke-width="2.0" />
<line x1="441.0" y1="126.0" x2="441.0" y2="140.0" stroke="#000000" stroke-width="2.0" />
<line x1="441.0" y1="140.0" x2="805.0" y2="140.0" stroke="#000000" stroke-width="2.0" />
<g>
    <line x1="343.0" y1="154.0" x2="346.5" y2="164.5" stroke="#000000" stroke-width="2.0" />
    <line x1="343.0" y1="154.0" x2="339.5" y2="164.5" stroke="#000000" stroke-width="2.0" />
    <line x1="343.0" y1="154.0" x2="343.0" y2="182.0" stroke="#000000" stroke-width="2.0" />
</g>
<g>
    <line x1="357.0" y1="154.0" x2="360.5" y2="164.5" stroke="#000000" stroke-width="2.0" />
    <line x1="357.0" y1="154.0" x2="353.5" y2="164.5" stroke="#000000" stroke-width="2.0" />
    <line x1="357.0" y1="154.0" x2="357.0" y2="182.0" stroke="#000000" stroke-width="2.0" />
</g>
<g>
    <line x1="371.0" y1="154.0" x2="374.5" y2="164.5" stroke="#000000" stroke-width="2.0" />
    <line x1="371.0" y1="154.0" x2="367.5" y2="164.5" stroke="#000000" stroke-width="2.0" />
    <line x1="371.0" y1="154.0" x2="371.0" y2="182.0" stroke="#000000" stroke-width="2.0" />
</g>
<g>
    <line x1="385.0" y1="154.0" x2="388.5" y2="164.5" stroke="#000000" stroke-width="2.0" />
    <line x1="385.0" y1="154.0" x2="381.5" y2="164.5" stroke="#000000" stroke-width="2.0" />
    <line x1="385.0" y1="154.0" x2="385.0" y2="182.0" stroke="#000000" stroke-width="2.0" />
</g>
<g>
    <line x1="399.0" y1="196.0" x2="402.5" y2="206.5" stroke="#000000" stroke-width="2.0" />
    <line x1="399.0" y1="196.0" x2="395.5" y2="206.5" stroke="#000000" stroke-width="2.0" />
    <line x1="399.0" y1="196.0" x2="399.0" y2="224.0" stroke="#000000" stroke-width="2.0" />
</g>
<g>
    <line x1="413.0" y1="196.0" x2="416.5" y2="206.5" stroke="#000000" stroke-width="2.0" />
    <line x1="413.0" y1="196.0" x2="409.5" y2="206.5" stroke="#000000" stroke-width="2.0" />
    <line x1="413.0" y1="196.0" x2="413.0" y2="224.0" stroke="#000000" stroke-width="2.0" />
</g>
<g>
    <line x1="427.0" y1="196.0" x2="430.5" y2="206.5" stroke="#000000" stroke-width="2.0" />
    <line x1="427.0" y1="196.0" x2="423.5" y2="206.5" stroke="#000000" stroke-width="2.0" />
    <line x1="427.0" y1="196.0" x2="427.0" y2="224.0" stroke="#000000" stroke-width="2.0" />
</g>
<g>
    <line x1="441.0" y1="196.0" x2="444.5" y2="206.5" stroke="#000000" stroke-width="2.0" />
    <line x1="441.0" y1="196.0" x2="437.5" y2="206.5" stroke="#000000" stroke-width="2.0" />
    <line x1="441.0" y1="196.0" x2="441.0" y2="224.0" stroke="#000000" stroke-width="2.0" />
</g>
<line x1="245.0" y1="252.0" x2="805.0" y2="252.0" stroke="#000000" stroke-width="2.0" />
<line x1="273.0" y1="266.0" x2="301.0" y2="266.0" stroke="#000000" stroke-width="2.0" />
<line x1="329.0" y1="266.0" x2="357.0" y2="266.0" stroke="#000000" stroke-width="2.0" />
<line x1="385.0" y1="266.0" x2="413.0" y2="266.0" stroke="#000000" stroke-width="2.0" />
<line x1="441.0" y1="266.0" x2="469.0" y2="266.0" stroke="#000000" stroke-width="2.0" />
<line x1="497.0" y1="266.0" x2="525.0" y2="266.0" stroke="#000000" stroke-width="2.0" />
<line x1="553.0" y1="266.0" x2="581.0" y2="266.0" stroke="#000000" stroke-width="2.0" />
<line x1="609.0" y1="266.0" x2="637.0" y2="266.0" stroke="#000000" stroke-width="2.0" />
<line x1="665.0" y1="266.0" x2="693.0" y2="266.0" stroke="#000000" stroke-width="2.0" />
<line x1="721.0" y1="266.0" x2="749.0" y2="266.0" stroke="#000000" stroke-width="2.0" />
<line x1="777.0" y1="266.0" x2="805.0" y2="266.0" stroke="#000000" stroke-width="2.0" />
<line x1="245.0" y1="280.0" x2="273.0" y2="280.0" stroke="#000000" stroke-width="2.0" />
<line x1="273.0" y1="266.0" x2="273.0" y2="280.0" stroke="#000000" stroke-width="2.0" />
<line x1="301.0" y1="266.0" x2="301.0" y2="280.0" stroke="#000000" stroke-width="2.0" />
<line x1="301.0" y1="280.0" x2="329.0" y2="280.0" stroke="#000000" stroke-width="2.0" />
<line x1="329.0" y1="266.0" x2="329.0" y2="280.0" stroke="#000000" stroke-width="2.0" />
<line x1="357.0" y1="266.0" x2="357.0" y2="280.0" stroke="#000000" stroke-width="2.0" />
<line x1="357.0" y1="280.0" x2="385.0" y2="280.0" stroke="#000000" stroke-width="2.0" />
<line x1="385.0" y1="266.0" x2="385.0" y2="280.0" stroke="#000000" stroke-width="2.0" />
<line x1="413.0" y1="266.0" x2="413.0" y2="280.0" stroke="#000000" stroke-width="2.0" />
<line x1="413.0" y1="280.0" x2="441.0" y2="280.0" stroke="#000000" stroke-width="2.0" />
<line x1="441.0" y1="266.0" x2="441.0" y2="280.0" stroke="#000000" stroke-width="2.0" />
<line x1="469.0" y1="266.0" x2="469.0" y2="280.0" stroke="#000000" stroke-width="2.0" />
<line x1="469.0" y1="280.0" x2="497.0" y2="280.0" stroke="#000000" stroke-width="2.0" />
<line x1="497.0" y1="266.0" x2="497.0" y2="280.0" stroke="#000000" stroke-width="2.0" />
<line x1="525.0" y1="266.0" x2="525.0" y2="280.0" stroke="#000000" stroke-width="2.0" />
<line x1="525.0" y1="280.0" x2="553.0" y2="280.0" stroke="#000000" stroke-width="2.0" />
<line x1="553.0" y1="266.0" x2="553.0" y2="280.0" stroke="#000000" stroke-width="2.0" />
<line x1="581.0" y1="266.0" x2="581.0" y2="280.0" stroke="#000000" stroke-width="2.0" />
<line x1="581.0" y1="280.0" x2="609.0" y2="280.0" stroke="#000000" stroke-width="2.0" />
<line x1="609.0" y1="266.0" x2="609.0" y2="280.0" stroke="#000000" stroke-width="2.0" />
<line x1="637.0" y1="266.0" x2="637.0" y2="280.0" stroke="#000000" stroke-width="2.0" />
<line x1="637.0" y1="280.0" x2="665.0" y2="280.0" stroke="#000000" stroke-width="2.0" />
<line x1="665.0" y1="266.0" x2="665.0" y2="280.0" stroke="#000000" stroke-width="2.0" />
<line x1="693.0" y1="266.0" x2="693.0" y2="280.0" stroke="#000000" stroke-width="2.0" />
<line x1="693.0" y1="280.0" x2="721.0" y2="280.0" stroke="#000000" stroke-width="2.0" />
<line x1="721.0" y1="266.0" x2="721.0" y2="280.0" stroke="#000000" stroke-width="2.0" />
<line x1="749.0" y1="266.0" x2="749.0" y2="280.0" stroke="#000000" stroke-width="2.0" />
<line x1="749.0" y1="280.0" x2="777.0" y2="280.0" stroke="#000000" stroke-width="2.0" />
<line x1="777.0" y1="266.0" x2="777.0" y2="280.0" stroke="#000000" stroke-width="2.0" />
<line x1="245.0" y1="294.0" x2="805.0" y2="294.0" stroke="#000000" stroke-width="2.0" />
<line x1="329.0" y1="294.0" x2="329.0" y2="308.0" stroke="#000000" stroke-width="2.0" />
<line x1="441.0" y1="294.0" x2="441.0" y2="308.0" stroke="#000000" stroke-width="2.0" />
<line x1="245.0" y1="308.0" x2="805.0" y2="308.0" stroke="#000000" stroke-width="2.0" />
<line x1="385.0" y1="336.0" x2="441.0" y2="336.0" stroke="#000000" stroke-width="2.0" />
<line x1="245.0" y1="350.0" x2="385.0" y2="350.0" stroke="#000000" stroke-width="2.0" />
<line x1="385.0" y1="336.0" x2="385.0" y2="350.0" stroke="#000000" stroke-width="2.0" />
<line x1="441.0" y1="336.0" x2="441.0" y2="350.0" stroke="#000000" stroke-width="2.0" />
<line x1="441.0" y1="350.0" x2="805.0" y2="350.0" stroke="#000000" stroke-width="2.0" />
<line x1="329.0" y1="364.0" x2="441.0" y2="364.0" stroke="#000000" stroke-width="2.0" />
<line x1="245.0" y1="378.0" x2="329.0" y2="378.0" stroke="#000000" stroke-width="2.0" />
<line x1="329.0" y1="364.0" x2="329.0" y2="378.0" stroke="#000000" stroke-width="2.0" />
<line x1="441.0" y1="364.0" x2="441.0" y2="378.0" stroke="#000000" stroke-width="2.0" />
<line x1="441.0" y1="378.0" x2="805.0" y2="378.0" stroke="#000000" stroke-width="2.0" />
<g>
    <line x1="343.0" y1="406.0" x2="346.5" y2="416.5" stroke="#000000" stroke-width="2.0" />
    <line x1="343.0" y1="406.0" x2="339.5" y2="416.5" stroke="#000000" stroke-width="2.0" />
    <line x1="343.0" y1="406.0" x2="343.0" y2="434.0" stroke="#000000" stroke-width="2.0" />
</g>
<g>
    <line x1="357.0" y1="406.0" x2="360.5" y2="416.5" stroke="#000000" stroke-width="2.0" />
    <line x1="357.0" y1="406.0" x2="353.5" y2="416.5" stroke="#000000" stroke-width="2.0" />
    <line x1="357.0" y1="406.0" x2="357.0" y2="434.0" stroke="#000000" stroke-width="2.0" />
</g>
<g>
    <line x1="371.0" y1="406.0" x2="374.5" y2="416.5" stroke="#000000" stroke-width="2.0" />
    <line x1="371.0" y1="406.0" x2="367.5" y2="416.5" stroke="#000000" stroke-width="2.0" />
    <line x1="371.0" y1="406.0" x2="371.0" y2="434.0" stroke="#000000" stroke-width="2.0" />
</g>
<g>
    <line x1="385.0" y1="406.0" x2="388.5" y2="416.5" stroke="#000000" stroke-width="2.0" />
    <line x1="385.0" y1="406.0" x2="381.5" y2="416.5" stroke="#000000" stroke-width="2.0" />
    <line x1="385.0" y1="406.0" x2="385.0" y2="434.0" stroke="#000000" stroke-width="2.0" />
</g>
<g>
    <line x1="399.0" y1="448.0" x2="402.5" y2="458.5" stroke="#000000" stroke-width="2.0" />
    <line x1="399.0" y1="448.0" x2="395.5" y2="458.5" stroke="#000000" stroke-width="2.0" />
    <line x1="399.0" y1="448.0" x2="399.0" y2="476.0" stroke="#000000" stroke-width="2.0" />
</g>
<g>
    <line x1="413.0" y1="448.0" x2="416.5" y2="458.5" stroke="#000000" stroke-width="2.0" />
    <line x1="413.0" y1="448.0" x2="409.5" y2="458.5" stroke="#000000" stroke-width="2.0" />
    <line x1="413.0" y1="448.0" x2="413.0" y2="476.0" stroke="#000000" stroke-width="2.0" />
</g>
<g>
    <line x1="427.0" y1="448.0" x2="430.5" y2="458.5" stroke="#000000" stroke-width="2.0" />
    <line x1="427.0" y1="448.0" x2="423.5" y2="458.5" stroke="#000000" stroke-width="2.0" />
    <line x1="427.0" y1="448.0" x2="427.0" y2="476.0" stroke="#000000" stroke-width="2.0" />
</g>
<g>
    <line x1="441.0" y1="448.0" x2="444.5" y2="458.5" stroke="#000000" stroke-width="2.0" />
    <line x1="441.0" y1="448.0" x2="437.5" y2="458.5" stroke="#000000" stroke-width="2.0" />
    <line x1="441.0" y1="448.0" x2="441.0" y2="476.0" stroke="#000000" stroke-width="2.0" />
</g>
<line x1="245.0" y1="518.0" x2="805.0" y2="518.0" stroke="#000000" stroke-width="2.0" />
<line x1="273.0" y1="532.0" x2="315.0" y2="532.0" stroke="#000000" stroke-width="2.0" />
<line x1="357.0" y1="532.0" x2="399.0" y2="532.0" stroke="#000000" stroke-width="2.0" />
<line x1="441.0" y1="532.0" x2="483.0" y2="532.0" stroke="#000000" stroke-width="2.0" />
<line x1="525.0" y1="532.0" x2="567.0" y2="532.0" stroke="#000000" stroke-width="2.0" />
<line x1="609.0" y1="532.0" x2="651.0" y2="532.0" stroke="#000000" stroke-width="2.0" />
<line x1="693.0" y1="532.0" x2="735.0" y2="532.0" stroke="#000000" stroke-width="2.0" />
<line x1="777.0" y1="532.0" x2="805.0" y2="532.0" stroke="#000000" stroke-width="2.0" />
<line x1="245.0" y1="546.0" x2="273.0" y2="546.0" stroke="#000000" stroke-width="2.0" />
<line x1="273.0" y1="532.0" x2="273.0" y2="546.0" stroke="#000000" stroke-width="2.0" />
<line x1="315.0" y1="532.0" x2="315.0" y2="546.0" stroke="#000000" stroke-width="2.0" />
<line x1="315.0" y1="546.0" x2="357.0" y2="546.0" stroke="#000000" stroke-width="2.0" />
<line x1="357.0" y1="532.0" x2="357.0" y2="546.0" stroke="#000000" stroke-width="2.0" />
<line x1="399.0" y1="532.0" x2="399.0" y2="546.0" stroke="#000000" stroke-width="2.0" />
<line x1="399.0" y1="546.0" x2="441.0" y2="546.0" stroke="#000000" stroke-width="2.0" />
<line x1="441.0" y1="532.0" x2="441.0" y2="546.0" stroke="#000000" stroke-width="2.0" />
<line x1="483.0" y1="532.0" x2="483.0" y2="546.0" stroke="#000000" stroke-width="2.0" />
<line x1="483.0" y1="546.0" x2="525.0" y2="546.0" stroke="#000000" stroke-width="2.0" />
<line x1="525.0" y1="532.0" x2="525.0" y2="546.0" stroke="#000000" stroke-width="2.0" />
<line x1="567.0" y1="532.0" x2="567.0" y2="546.0" stroke="#000000" stroke-width="2.0" />
<line x1="567.0" y1="546.0" x2="609.0" y2="546.0" stroke="#000000" stroke-width="2.0" />
<line x1="609.0" y1="532.0" x2="609.0" y2="546.0" stroke="#000000" stroke-width="2.0" />
<line x1="651.0" y1="532.0" x2="651.0" y2="546.0" stroke="#000000" stroke-width="2.0" />
<line x1="651.0" y1="546.0" x2="693.0" y2="546.0" stroke="#000000" stroke-width="2.0" />
<line x1="693.0" y1="532.0" x2="693.0" y2="546.0" stroke="#000000" stroke-width="2.0" />
<line x1="735.0" y1="532.0" x2="735.0" y2="546.0" stroke="#000000" stroke-width="2.0" />
<line x1="735.0" y1="546.0" x2="777.0" y2="546.0" stroke="#000000" stroke-width="2.0" />
<line x1="777.0" y1="532.0" x2="777.0" y2="546.0" stroke="#000000" stroke-width="2.0" />
<line x1="245.0" y1="574.0" x2="805.0" y2="574.0" stroke="#000000" stroke-width="2.0" />
<line x1="357.0" y1="574.0" x2="357.0" y2="588.0" stroke="#000000" stroke-width="2.0" />
<line x1="525.0" y1="574.0" x2="525.0" y2="588.0" stroke="#000000" stroke-width="2.0" />
<line x1="609.0" y1="574.0" x2="609.0" y2="588.0" stroke="#000000" stroke-width="2.0" />
<line x1="693.0" y1="574.0" x2="693.0" y2="588.0" stroke="#000000" stroke-width="2.0" />
<line x1="245.0" y1="588.0" x2="805.0" y2="588.0" stroke="#000000" stroke-width="2.0" />
<line x1="441.0" y1="616.0" x2="693.0" y2="616.0" stroke="#000000" stroke-width="2.0" />
<line x1="245.0" y1="630.0" x2="441.0" y2="630.0" stroke="#000000" stroke-width="2.0" />
<line x1="441.0" y1="616.0" x2="441.0" y2="630.0" stroke="#000000" stroke-width="2.0" />
<line x1="693.0" y1="616.0" x2="693.0" y2="630.0" stroke="#000000" stroke-width="2.0" />
<line x1="693.0" y1="630.0" x2="805.0" y2="630.0" stroke="#000000" stroke-width="2.0" />
<line x1="357.0" y1="644.0" x2="693.0" y2="644.0" stroke="#000000" stroke-width="2.0" />
<line x1="245.0" y1="658.0" x2="357.0" y2="658.0" stroke="#000000" stroke-width="2.0" />
<line x1="357.0" y1="644.0" x2="357.0" y2="658.0" stroke="#000000" stroke-width="2.0" />
<line x1="693.0" y1="644.0" x2="693.0" y2="658.0" stroke="#000000" stroke-width="2.0" />
<line x1="693.0" y1="658.0" x2="805.0" y2="658.0" stroke="#000000" stroke-width="2.0" />
<g>
    <line x1="357.0" y1="672.0" x2="360.5" y2="682.5" stroke="#000000" stroke-width="2.0" />
    <line x1="357.0" y1="672.0" x2="353.5" y2="682.5" stroke="#000000" stroke-width="2.0" />
    <line x1="357.0" y1="672.0" x2="357.0" y2="700.0" stroke="#000000" stroke-width="2.0" />
</g>
<g>
    <line x1="371.0" y1="672.0" x2="374.5" y2="682.5" stroke="#000000" stroke-width="2.0" />
    <line x1="371.0" y1="672.0" x2="367.5" y2="682.5" stroke="#000000" stroke-width="2.0" />
    <line x1="371.0" y1="672.0" x2="371.0" y2="700.0" stroke="#000000" stroke-width="2.0" />
</g>
<g>
    <line x1="385.0" y1="672.0" x2="388.5" y2="682.5" stroke="#000000" stroke-width="2.0" />
    <line x1="385.0" y1="672.0" x2="381.5" y2="682.5" stroke="#000000" stroke-width="2.0" />
    <line x1="385.0" y1="672.0" x2="385.0" y2="700.0" stroke="#000000" stroke-width="2.0" />
</g>
<g>
    <line x1="399.0" y1="672.0" x2="402.5" y2="682.5" stroke="#000000" stroke-width="2.0" />
    <line x1="399.0" y1="672.0" x2="395.5" y2="682.5" stroke="#000000" stroke-width="2.0" />
    <line x1="399.0" y1="672.0" x2="399.0" y2="700.0" stroke="#000000" stroke-width="2.0" />
</g>
<g>
    <line x1="455.0" y1="700.0" x2="458.5" y2="710.5" stroke="#000000" stroke-width="2.0" />
    <line x1="455.0" y1="700.0" x2="451.5" y2="710.5" stroke="#000000" stroke-width="2.0" />
    <line x1="455.0" y1="700.0" x2="455.0" y2="728.0" stroke="#000000" stroke-width="2.0" />
</g>
<g>
    <line x1="469.0" y1="700.0" x2="472.5" y2="710.5" stroke="#000000" stroke-width="2.0" />
    <line x1="469.0" y1="700.0" x2="465.5" y2="710.5" stroke="#000000" stroke-width="2.0" />
    <line x1="469.0" y1="700.0" x2="469.0" y2="728.0" stroke="#000000" stroke-width="2.0" />
</g>
<g>
    <line x1="483.0" y1="700.0" x2="486.5" y2="710.5" stroke="#000000" stroke-width="2.0" />
    <line x1="483.0" y1="700.0" x2="479.5" y2="710.5" stroke="#000000" stroke-width="2.0" />
    <line x1="483.0" y1="700.0" x2="483.0" y2="728.0" stroke="#000000" stroke-width="2.0" />
</g>
<g>
    <line x1="497.0" y1="700.0" x2="500.5" y2="710.5" stroke="#000000" stroke-width="2.0" />
    <line x1="497.0" y1="700.0" x2="493.5" y2="710.5" stroke="#000000" stroke-width="2.0" />
    <line x1="497.0" y1="700.0" x2="497.0" y2="728.0" stroke="#000000" stroke-width="2.0" />
</g>
<g>
    <line x1="525.0" y1="728.0" x2="528.5" y2="738.5" stroke="#000000" stroke-width="2.0" />
    <line x1="525.0" y1="728.0" x2="521.5" y2="738.5" stroke="#000000" stroke-width="2.0" />
    <line x1="525.0" y1="728.0" x2="525.0" y2="756.0" stroke="#000000" stroke-width="2.0" />
</g>
<g>
    <line x1="539.0" y1="728.0" x2="542.5" y2="738.5" stroke="#000000" stroke-width="2.0" />
    <line x1="539.0" y1="728.0" x2="535.5" y2="738.5" stroke="#000000" stroke-width="2.0" />
    <line x1="539.0" y1="728.0" x2="539.0" y2="756.0" stroke="#000000" stroke-width="2.0" />
</g>
<g>
    <line x1="553.0" y1="728.0" x2="556.5" y2="738.5" stroke="#000000" stroke-width="2.0" />
    <line x1="553.0" y1="728.0" x2="549.5" y2="738.5" stroke="#000000" stroke-width="2.0" />
    <line x1="553.0" y1="728.0" x2="553.0" y2="756.0" stroke="#000000" stroke-width="2.0" />
</g>
<g>
    <line x1="567.0" y1="728.0" x2="570.5" y2="738.5" stroke="#000000" stroke-width="2.0" />
    <line x1="567.0" y1="728.0" x2="563.5" y2="738.5" stroke="#000000" stroke-width="2.0" />
    <line x1="567.0" y1="728.0" x2="567.0" y2="756.0" stroke="#000000" stroke-width="2.0" />
</g>
<text x="350.0" y="67.9" font-family="monospace" font-size="14.0" fill="#000000" >
  VALID
</text>
<text x="350.0" y="305.9" font-family="monospace" font-size="14.0" fill="#000000" >
  VALID
</text>
<text x="378.0" y="585.9" font-family="monospace" font-size="14.0" fill="#000000" >
  D0
</text>
<text x="546.0" y="585.9" font-family="monospace" font-size="14.0" fill="#000000" >
  D1
</text>
<text x="630.0" y="585.9" font-family="monospace" font-size="14.0" fill="#000000" >
  D2
</text>
</svg>
