<?xml version="1.0" standalone="no"?>
<!DOCTYPE svg PUBLIC "-//W3C//DTD SVG 1.1//EN"
 "http://www.w3.org/Graphics/SVG/1.1/DTD/svg11.dtd">

<svg version="1.1" xmlns="http://www.w3.org/2000/svg"
  xmlns:xlink="http://www.w3.org/1999/xlink">
<!-- automatically generated by aafigure -->
<text x="378.0" y="151.9" font-family="monospace" font-size="14.0" fill="#000000" >
  &lt;bus_name&gt;
</text>
<text x="378.0" y="179.9" font-family="monospace" font-size="14.0" fill="#000000" >
  &lt;bus_name&gt;_stb
</text>
<text x="378.0" y="207.9" font-family="monospace" font-size="14.0" fill="#000000" >
  &lt;bus_name&gt;_ack
</text>
<g>
    <line x1="70.0" y1="7.0" x2="59.5" y2="3.5" stroke="#000000" stroke-width="2.0" />
    <line x1="70.0" y1="7.0" x2="59.5" y2="10.5" stroke="#000000" stroke-width="2.0" />
    <circle cx="91.0" cy="7.0" r="3.5" stroke="#000000" stroke-width="2.0" fill="#000000" />
    <line x1="70.0" y1="7.0" x2="91.0" y2="7.0" stroke="#000000" stroke-width="2.0" />
</g>
<g>
    <circle cx="91.0" cy="7.0" r="3.5" stroke="#000000" stroke-width="2.0" fill="#000000" />
    <line x1="91.0" y1="7.0" x2="525.0" y2="7.0" stroke="#000000" stroke-width="2.0" />
</g>
<g>
    <circle cx="91.0" cy="7.0" r="3.5" stroke="#000000" stroke-width="2.0" fill="#000000" />
    <line x1="91.0" y1="7.0" x2="91.0" y2="35.0" stroke="#000000" stroke-width="2.0" />
</g>
<line x1="525.0" y1="7.0" x2="525.0" y2="91.0" stroke="#000000" stroke-width="2.0" />
<g>
    <line x1="70.0" y1="35.0" x2="59.5" y2="31.5" stroke="#000000" stroke-width="2.0" />
    <line x1="70.0" y1="35.0" x2="59.5" y2="38.5" stroke="#000000" stroke-width="2.0" />
    <line x1="70.0" y1="35.0" x2="91.0" y2="35.0" stroke="#000000" stroke-width="2.0" />
</g>
<g>
    <circle cx="133.0" cy="35.0" r="3.5" stroke="#000000" stroke-width="2.0" fill="#000000" />
    <line x1="91.0" y1="35.0" x2="133.0" y2="35.0" stroke="#000000" stroke-width="2.0" />
</g>
<g>
    <circle cx="133.0" cy="35.0" r="3.5" stroke="#000000" stroke-width="2.0" fill="#000000" />
    <line x1="133.0" y1="35.0" x2="483.0" y2="35.0" stroke="#000000" stroke-width="2.0" />
</g>
<line x1="91.0" y1="35.0" x2="91.0" y2="119.0" stroke="#000000" stroke-width="2.0" />
<g>
    <circle cx="133.0" cy="35.0" r="3.5" stroke="#000000" stroke-width="2.0" fill="#000000" />
    <line x1="133.0" y1="35.0" x2="133.0" y2="91.0" stroke="#000000" stroke-width="2.0" />
</g>
<line x1="483.0" y1="35.0" x2="483.0" y2="119.0" stroke="#000000" stroke-width="2.0" />
<line x1="189.0" y1="63.0" x2="357.0" y2="63.0" stroke="#000000" stroke-width="2.0" />
<line x1="623.0" y1="63.0" x2="833.0" y2="63.0" stroke="#000000" stroke-width="2.0" />
<line x1="189.0" y1="63.0" x2="189.0" y2="91.0" stroke="#000000" stroke-width="2.0" />
<line x1="357.0" y1="63.0" x2="357.0" y2="161.0" stroke="#000000" stroke-width="2.0" />
<line x1="623.0" y1="63.0" x2="623.0" y2="91.0" stroke="#000000" stroke-width="2.0" />
<line x1="833.0" y1="63.0" x2="833.0" y2="245.0" stroke="#000000" stroke-width="2.0" />
<g>
    <line x1="189.0" y1="91.0" x2="178.5" y2="94.5" stroke="#000000" stroke-width="2.0" />
    <line x1="189.0" y1="91.0" x2="178.5" y2="87.5" stroke="#000000" stroke-width="2.0" />
    <line x1="133.0" y1="91.0" x2="189.0" y2="91.0" stroke="#000000" stroke-width="2.0" />
</g>
<g>
    <line x1="623.0" y1="91.0" x2="612.5" y2="94.5" stroke="#000000" stroke-width="2.0" />
    <line x1="623.0" y1="91.0" x2="612.5" y2="87.5" stroke="#000000" stroke-width="2.0" />
    <line x1="525.0" y1="91.0" x2="623.0" y2="91.0" stroke="#000000" stroke-width="2.0" />
</g>
<line x1="189.0" y1="91.0" x2="189.0" y2="119.0" stroke="#000000" stroke-width="2.0" />
<line x1="623.0" y1="91.0" x2="623.0" y2="119.0" stroke="#000000" stroke-width="2.0" />
<g>
    <line x1="189.0" y1="119.0" x2="178.5" y2="122.5" stroke="#000000" stroke-width="2.0" />
    <line x1="189.0" y1="119.0" x2="178.5" y2="115.5" stroke="#000000" stroke-width="2.0" />
    <line x1="91.0" y1="119.0" x2="189.0" y2="119.0" stroke="#000000" stroke-width="2.0" />
</g>
<g>
    <line x1="623.0" y1="119.0" x2="612.5" y2="122.5" stroke="#000000" stroke-width="2.0" />
    <line x1="623.0" y1="119.0" x2="612.5" y2="115.5" stroke="#000000" stroke-width="2.0" />
    <line x1="483.0" y1="119.0" x2="623.0" y2="119.0" stroke="#000000" stroke-width="2.0" />
</g>
<line x1="189.0" y1="119.0" x2="189.0" y2="245.0" stroke="#000000" stroke-width="2.0" />
<line x1="623.0" y1="119.0" x2="623.0" y2="161.0" stroke="#000000" stroke-width="2.0" />
<g>
    <line x1="623.0" y1="161.0" x2="612.5" y2="164.5" stroke="#000000" stroke-width="2.0" />
    <line x1="623.0" y1="161.0" x2="612.5" y2="157.5" stroke="#000000" stroke-width="2.0" />
    <line x1="357.0" y1="161.0" x2="623.0" y2="161.0" stroke="#000000" stroke-width="4.0" />
</g>
<line x1="357.0" y1="161.0" x2="357.0" y2="189.0" stroke="#000000" stroke-width="2.0" />
<line x1="623.0" y1="161.0" x2="623.0" y2="189.0" stroke="#000000" stroke-width="2.0" />
<g>
    <line x1="623.0" y1="189.0" x2="612.5" y2="192.5" stroke="#000000" stroke-width="2.0" />
    <line x1="623.0" y1="189.0" x2="612.5" y2="185.5" stroke="#000000" stroke-width="2.0" />
    <line x1="357.0" y1="189.0" x2="623.0" y2="189.0" stroke="#000000" stroke-width="2.0" />
</g>
<line x1="357.0" y1="189.0" x2="357.0" y2="217.0" stroke="#000000" stroke-width="2.0" />
<line x1="623.0" y1="189.0" x2="623.0" y2="217.0" stroke="#000000" stroke-width="2.0" />
<g>
    <line x1="357.0" y1="217.0" x2="367.5" y2="213.5" stroke="#000000" stroke-width="2.0" />
    <line x1="357.0" y1="217.0" x2="367.5" y2="220.5" stroke="#000000" stroke-width="2.0" />
    <line x1="357.0" y1="217.0" x2="623.0" y2="217.0" stroke="#000000" stroke-width="2.0" />
</g>
<line x1="357.0" y1="217.0" x2="357.0" y2="245.0" stroke="#000000" stroke-width="2.0" />
<line x1="623.0" y1="217.0" x2="623.0" y2="245.0" stroke="#000000" stroke-width="2.0" />
<line x1="189.0" y1="245.0" x2="357.0" y2="245.0" stroke="#000000" stroke-width="2.0" />
<line x1="623.0" y1="245.0" x2="833.0" y2="245.0" stroke="#000000" stroke-width="2.0" />
<text x="0.0" y="11.9" font-family="monospace" font-size="14.0" fill="#000000" >
  rst
</text>
<text x="0.0" y="39.9" font-family="monospace" font-size="14.0" fill="#000000" >
  clk
</text>
<text x="210.0" y="81.9" font-family="monospace" font-size="14.0" fill="#000000" >
  TX
</text>
<text x="644.0" y="81.9" font-family="monospace" font-size="14.0" fill="#000000" >
  RX
</text>
</svg>
